REM DIRINDEX 1\2\6,1\2\7,1\2\8,1\2\9,1\3\10,1\3\11,1\4\12,1\4\13,1\4\14,1\5\15,1\5\16,1\5\17
REM DIRNAME cjc020,folder01,folder02,folder03,folder04,folder05,folder06,folder07,folder08,folder09,folder10,folder11,folder12,folder13,folder14,folder15,folder16
TITLE ""
FILE "1900_2_sec15_1433_1449.mp3" MP3
  TRACK 01 AUDIO
    TITLE "0:"
    INDEX 01 00:00:00
  TRACK 02 AUDIO
    TITLE "13:cjc020_5010"
    INDEX 01 00:00:19
  TRACK 03 AUDIO
    TITLE "0:"
    INDEX 01 00:01:40
  TRACK 04 AUDIO
    TITLE "14:cjc020_5011"
    INDEX 01 00:01:42
  TRACK 05 AUDIO
    TITLE "0:"
    INDEX 01 00:05:52
  TRACK 06 AUDIO
    TITLE "13:cjc020_5012"
    INDEX 01 00:06:31
  TRACK 07 AUDIO
    TITLE "0:"
    INDEX 01 00:07:54
  TRACK 08 AUDIO
    TITLE "14:cjc020_5013"
    INDEX 01 00:07:56
  TRACK 09 AUDIO
    TITLE "0:"
    INDEX 01 00:08:72
  TRACK 10 AUDIO
    TITLE "13:cjc020_5014"
    INDEX 01 00:09:49
  TRACK 11 AUDIO
    TITLE "0:"
    INDEX 01 00:10:57
  TRACK 12 AUDIO
    TITLE "14:cjc020_5015"
    INDEX 01 00:10:65
  TRACK 13 AUDIO
    TITLE "0:"
    INDEX 01 00:13:24
  TRACK 14 AUDIO
    TITLE "13:cjc020_5016"
    INDEX 01 00:14:06
  TRACK 15 AUDIO
    TITLE "0:"
    INDEX 01 00:15:15
  TRACK 16 AUDIO
    TITLE "14:cjc020_5017"
    INDEX 01 00:15:19
  TRACK 17 AUDIO
    TITLE "0:"
    INDEX 01 00:18:21
  TRACK 18 AUDIO
    TITLE "13:cjc020_5018"
    INDEX 01 00:18:72
  TRACK 19 AUDIO
    TITLE "0:"
    INDEX 01 00:20:18
  TRACK 20 AUDIO
    TITLE "14:cjc020_5019"
    INDEX 01 00:20:24
  TRACK 21 AUDIO
    TITLE "0:"
    INDEX 01 00:23:42
  TRACK 22 AUDIO
    TITLE "13:cjc020_5020"
    INDEX 01 00:24:20
  TRACK 23 AUDIO
    TITLE "0:"
    INDEX 01 00:25:33
  TRACK 24 AUDIO
    TITLE "14:cjc020_5021"
    INDEX 01 00:25:39
  TRACK 25 AUDIO
    TITLE "0:"
    INDEX 01 00:27:51
  TRACK 26 AUDIO
    TITLE "13:cjc020_5022"
    INDEX 01 00:28:33
  TRACK 27 AUDIO
    TITLE "0:"
    INDEX 01 00:29:42
  TRACK 28 AUDIO
    TITLE "14:cjc020_5023"
    INDEX 01 00:29:46
  TRACK 29 AUDIO
    TITLE "0:"
    INDEX 01 00:32:70
  TRACK 30 AUDIO
    TITLE "13:cjc020_5024"
    INDEX 01 00:33:50
  TRACK 31 AUDIO
    TITLE "0:"
    INDEX 01 00:34:61
  TRACK 32 AUDIO
    TITLE "14:cjc020_5025"
    INDEX 01 00:34:67
  TRACK 33 AUDIO
    TITLE "0:"
    INDEX 01 00:37:18
  TRACK 34 AUDIO
    TITLE "12:cjc020_5026"
    INDEX 01 00:38:69
  TRACK 35 AUDIO
    TITLE "0:"
    INDEX 01 00:40:19
  TRACK 36 AUDIO
    TITLE "13:cjc020_5027"
    INDEX 01 00:41:16
  TRACK 37 AUDIO
    TITLE "0:"
    INDEX 01 00:42:27
  TRACK 38 AUDIO
    TITLE "14:cjc020_5028"
    INDEX 01 00:42:31
  TRACK 39 AUDIO
    TITLE "0:"
    INDEX 01 00:43:33
  TRACK 40 AUDIO
    TITLE "13:cjc020_5029"
    INDEX 01 00:44:14
  TRACK 41 AUDIO
    TITLE "0:"
    INDEX 01 00:45:12
  TRACK 42 AUDIO
    TITLE "14:cjc020_5030"
    INDEX 01 00:45:14
  TRACK 43 AUDIO
    TITLE "0:"
    INDEX 01 00:46:15
  TRACK 44 AUDIO
    TITLE "13:cjc020_5031"
    INDEX 01 00:46:70
  TRACK 45 AUDIO
    TITLE "0:"
    INDEX 01 00:47:74
  TRACK 46 AUDIO
    TITLE "14:cjc020_5032"
    INDEX 01 00:48:00
  TRACK 47 AUDIO
    TITLE "0:"
    INDEX 01 00:49:72
  TRACK 48 AUDIO
    TITLE "13:cjc020_5033"
    INDEX 01 00:50:54
  TRACK 49 AUDIO
    TITLE "0:"
    INDEX 01 00:52:00
  TRACK 50 AUDIO
    TITLE "14:cjc020_5034"
    INDEX 01 00:52:04
  TRACK 51 AUDIO
    TITLE "0:"
    INDEX 01 00:54:27
  TRACK 52 AUDIO
    TITLE "13:cjc020_5035"
    INDEX 01 00:55:08
  TRACK 53 AUDIO
    TITLE "0:"
    INDEX 01 00:56:12
  TRACK 54 AUDIO
    TITLE "14:cjc020_5036"
    INDEX 01 00:56:18
  TRACK 55 AUDIO
    TITLE "0:"
    INDEX 01 00:58:46
  TRACK 56 AUDIO
    TITLE "13:cjc020_5037"
    INDEX 01 00:59:26
  TRACK 57 AUDIO
    TITLE "0:"
    INDEX 01 01:00:33
  TRACK 58 AUDIO
    TITLE "14:cjc020_5038"
    INDEX 01 01:00:37
  TRACK 59 AUDIO
    TITLE "0:"
    INDEX 01 01:03:24
  TRACK 60 AUDIO
    TITLE "13:cjc020_5039"
    INDEX 01 01:04:03
  TRACK 61 AUDIO
    TITLE "0:"
    INDEX 01 01:05:13
  TRACK 62 AUDIO
    TITLE "14:cjc020_5040"
    INDEX 01 01:05:15
  TRACK 63 AUDIO
    TITLE "0:"
    INDEX 01 01:06:18
  TRACK 64 AUDIO
    TITLE "13:cjc020_5041"
    INDEX 01 01:06:73
  TRACK 65 AUDIO
    TITLE "0:"
    INDEX 01 01:08:15
  TRACK 66 AUDIO
    TITLE "14:cjc020_5042"
    INDEX 01 01:08:19
  TRACK 67 AUDIO
    TITLE "0:"
    INDEX 01 01:09:36
  TRACK 68 AUDIO
    TITLE "13:cjc020_5043"
    INDEX 01 01:10:14
  TRACK 69 AUDIO
    TITLE "0:"
    INDEX 01 01:11:27
  TRACK 70 AUDIO
    TITLE "14:cjc020_5044"
    INDEX 01 01:11:31
  TRACK 71 AUDIO
    TITLE "0:"
    INDEX 01 01:13:55
